<svg xmlns="http://www.w3.org/2000/svg" width="1080" height="1350" viewBox="0 0 1080 1350">
  <defs>
    <linearGradient id="bg" x1="0" x2="1" y1="0" y2="1"><stop stop-color="#080a0f"/><stop offset=".52" stop-color="#111722"/><stop offset="1" stop-color="#07090d"/></linearGradient>
    <linearGradient id="gold" x1="0" x2="1"><stop stop-color="#e4c97a"/><stop offset="1" stop-color="#9b7a31"/></linearGradient>
    <style>.serif{font-family:Georgia,'Times New Roman',serif}.sans{font-family:Arial,Helvetica,sans-serif}.ivory{fill:#f3efe2}.muted{fill:#8f98aa}.goldText{fill:#e4c97a}.green{fill:#2dd4a0}.red{fill:#f05252}.line{stroke:#e4c97a;stroke-opacity:.24}</style>
  </defs>
  <rect width="1080" height="1350" fill="url(#bg)"/>
  <circle cx="900" cy="1050" r="340" fill="#c9a84c" opacity=".10"/>
  <path d="M70 102h940M70 1248h940" class="line"/>
  <text x="76" y="172" class="sans goldText" font-size="24" letter-spacing="7" font-weight="700">INTRODUCING</text>
  <text x="76" y="300" class="serif ivory" font-size="84" font-weight="700">The private family</text>
  <text x="76" y="390" class="serif ivory" font-size="84" font-weight="700">office dashboard</text>
  <text x="76" y="480" class="serif ivory" font-size="84" font-weight="700">for ambitious</text>
  <text x="76" y="570" class="serif ivory" font-size="84" font-weight="700">UK households.</text>
  <g transform="translate(80 720)">
    <rect width="920" height="350" rx="34" fill="#0a0c10" stroke="#2a3550"/>
    <rect x="18" y="18" width="884" height="58" rx="18" fill="#0f1218"/>
    <rect x="42" y="32" width="34" height="34" rx="9" fill="url(#gold)"/>
    <text x="94" y="56" class="serif goldText" font-size="24" font-weight="700">Wealth Command Centre</text>
    <text x="650" y="55" class="sans muted" font-size="15" font-weight="700">FY 2026/27</text>
    <g transform="translate(38 104)" class="sans">
      <rect width="844" height="104" rx="18" fill="#131822" stroke="#7a6330"/>
      <text x="24" y="38" class="muted" font-size="14" letter-spacing="3">TOTAL NET WORTH</text>
      <text x="24" y="82" class="serif goldText" font-size="50" font-weight="700">£96.4k</text>
      <text x="312" y="42" class="muted" font-size="14" letter-spacing="3">MONTHLY INCOME</text>
      <text x="312" y="82" class="green" font-size="32" font-weight="700">£6,832</text>
      <text x="545" y="42" class="muted" font-size="14" letter-spacing="3">MONTHLY SPEND</text>
      <text x="545" y="82" class="red" font-size="32" font-weight="700">£5,877</text>
      <text x="736" y="42" class="muted" font-size="14" letter-spacing="3">SURPLUS</text>
      <text x="736" y="82" class="green" font-size="32" font-weight="700">+£955</text>
    </g>
    <g transform="translate(38 230)">
      <rect width="266" height="82" rx="16" fill="#131822" stroke="#1e2535"/>
      <rect x="320" width="266" height="82" rx="16" fill="#131822" stroke="#1e2535"/>
      <rect x="640" width="204" height="82" rx="16" fill="#131822" stroke="#1e2535"/>
      <text x="22" y="33" class="sans muted" font-size="14" letter-spacing="3">BUFFER</text>
      <text x="22" y="64" class="sans green" font-size="24" font-weight="700">6.4 months</text>
      <text x="342" y="33" class="sans muted" font-size="14" letter-spacing="3">ISA LEFT</text>
      <text x="342" y="64" class="sans goldText" font-size="24" font-weight="700">£27.3k</text>
      <text x="662" y="33" class="sans muted" font-size="14" letter-spacing="3">MODE</text>
      <text x="662" y="64" class="sans ivory" font-size="24" font-weight="700">Live</text>
    </g>
  </g>
  <text x="76" y="1206" class="sans muted" font-size="28">Overview · Money Flow · Income &amp; Tax · Assets &amp; ISA · Simulator</text>
</svg>
